<svg xmlns="http://www.w3.org/2000/svg" width="400" height="300" viewBox="0 0 400 300">
  <defs>
    <linearGradient id="bg" x1="0" y1="0" x2="1" y2="1">
      <stop offset="0" stop-color="#1e293b"/>
      <stop offset="1" stop-color="#0f172a"/>
    </linearGradient>
    <linearGradient id="acc" x1="0" y1="0" x2="1" y2="1">
      <stop offset="0" stop-color="#8b5cf6"/>
      <stop offset="1" stop-color="#a78bfa"/>
    </linearGradient>
  </defs>
  <rect width="400" height="300" rx="18" fill="url(#bg)"/>
  <rect x="80" y="80" width="150" height="120" rx="8" fill="#1e293b" stroke="#334155" stroke-width="2"/>
  <rect x="95" y="95" width="80" height="12" rx="4" fill="#8b5cf6"/>
  <rect x="95" y="120" width="120" height="8" rx="4" fill="#334155"/>
  <rect x="95" y="138" width="100" height="8" rx="4" fill="#334155"/>
  <rect x="95" y="156" width="115" height="8" rx="4" fill="#334155"/>
  <rect x="95" y="174" width="90" height="8" rx="4" fill="#334155"/>
  <rect x="245" y="80" width="75" height="120" rx="8" fill="#1e293b" stroke="#334155" stroke-width="2"/>
  <circle cx="282" cy="108" r="10" fill="#8b5cf6"/>
  <rect x="260" y="130" width="45" height="6" rx="3" fill="#334155"/>
  <rect x="260" y="146" width="40" height="6" rx="3" fill="#334155"/>
  <rect x="260" y="162" width="45" height="6" rx="3" fill="#334155"/>
  <text x="95" y="226" fill="#a78bfa" font-family="monospace" font-size="12">function main() {}</text>
</svg>
